<?xml version="1.0" encoding="UTF-8"?>
<svg id="Layer_1" data-name="Layer 1" xmlns="http://www.w3.org/2000/svg" viewBox="0 0 800 800">
  <defs>
    <style>
      .cls-1 {
        fill: #48b25c;
        stroke-width: 0px;
      }
    </style>
  </defs>
  <path class="cls-1" d="m509.43,391.27l-90.7-13.06c-.1-4.94-.26-9.59-.48-13.97.61-15.1,2.28-24.78,6.34-30.88,5.23-7.84,15.92-10.89,38.16-10.89,16.55,0,40.78,3.39,61.74,8.62.56.14,1.13.21,1.69.21,1.34,0,2.67-.39,3.82-1.14,1.63-1.06,2.74-2.76,3.06-4.67l3.21-18.87c.6-3.55-1.59-6.98-5.07-7.91-22.97-6.18-49.77-9.88-71.68-9.88-29.61,0-47.88,4.85-59.54,16.33-11.66-11.48-29.93-16.33-59.54-16.33-21.91,0-48.7,3.69-71.68,9.88-3.48.94-5.67,4.36-5.07,7.91l3.21,18.87c.33,1.92,1.44,3.61,3.06,4.67,1.15.75,2.47,1.14,3.82,1.14.57,0,1.13-.07,1.69-.21,20.96-5.24,45.2-8.62,61.74-8.62,22.23,0,32.93,3.05,38.16,10.89,4.07,6.1,5.73,15.77,6.34,30.88-.22,4.38-.38,9.03-.48,13.97l-90.7,13.06c-21,2.53-32.57,14.39-32.57,33.42,0,31.41,5.29,52.36,16.63,65.91,11.75,14.03,29.99,20.56,57.4,20.56,18.14,0,31.47-3.05,41.94-9.59,2.55-1.59,4.92-3.41,7.12-5.43v4.43c0,3.85,3.12,6.98,6.98,6.98h23.85c3.85,0,6.98-3.12,6.98-6.98v-4.43c2.2,2.03,4.57,3.84,7.12,5.43,10.47,6.55,23.8,9.59,41.94,9.59,27.41,0,45.65-6.53,57.4-20.56,11.35-13.55,16.63-34.5,16.63-65.91,0-19.03-11.56-30.89-32.57-33.42Zm-137.43,71.76c-6.9,10.58-18.24,15.3-36.76,15.3-20.79,0-27.84-5.43-31.66-10.15-5.96-7.38-8.74-20.56-8.74-41.48,0-1.79.33-3.6,4.23-4.36l82.02-12.23v22.45c-1.59,13.62-4.57,23.55-9.09,30.47Zm124.41,5.15c-3.82,4.73-10.87,10.15-31.66,10.15-18.52,0-29.86-4.72-36.76-15.3-4.52-6.92-7.5-16.85-9.09-30.47v-22.45l82.02,12.23c3.9.76,4.23,2.57,4.23,4.36,0,20.92-2.78,34.1-8.74,41.48Z"/>
</svg>