<?xml version="1.0" encoding="UTF-8" standalone="no" ?>
<!DOCTYPE svg PUBLIC "-//W3C//DTD SVG 1.1//EN" "http://www.w3.org/Graphics/SVG/1.1/DTD/svg11.dtd">
<svg xmlns="http://www.w3.org/2000/svg" xmlns:xlink="http://www.w3.org/1999/xlink" version="1.1" width="1080" height="1080" viewBox="0 0 1080 1080" xml:space="preserve">
<desc>Created with Fabric.js 5.2.4</desc>
<defs>
</defs>
<g transform="matrix(1 0 0 1 540 540)" id="420ca7d6-d402-4232-8550-e657528ae04a"  >
<rect style="stroke: none; stroke-width: 1; stroke-dasharray: none; stroke-linecap: butt; stroke-dashoffset: 0; stroke-linejoin: miter; stroke-miterlimit: 4; fill: rgb(255,255,255); fill-rule: nonzero; opacity: 1; visibility: hidden;" vector-effect="non-scaling-stroke"  x="-540" y="-540" rx="0" ry="0" width="1080" height="1080" />
</g>
<g transform="matrix(1 0 0 1 540 540)" id="157063b8-6678-4109-a37d-4cf05fde7b59"  >
</g>
<g transform="matrix(2.95 0 0 2.95 540 540)"  >
<g style=""   >
		<g transform="matrix(1 0 0 1 -115.77 91.23)"  >
<polygon style="stroke: none; stroke-width: 1; stroke-dasharray: none; stroke-linecap: butt; stroke-dashoffset: 0; stroke-linejoin: miter; stroke-miterlimit: 4; fill: rgb(255,184,184); fill-rule: nonzero; opacity: 1;" vector-effect="non-scaling-stroke"  points="3.19,11.46 -2.36,11.46 -3.19,-11.46 3.19,-11.46 3.19,11.46 " />
</g>
		<g transform="matrix(1 0 0 1 -120.11 104.6)"  >
<path style="stroke: none; stroke-width: 1; stroke-dasharray: none; stroke-linecap: butt; stroke-dashoffset: 0; stroke-linejoin: miter; stroke-miterlimit: 4; fill: rgb(47,46,65); fill-rule: nonzero; opacity: 1;" vector-effect="non-scaling-stroke"  transform=" translate(46.54, -272.86)" d="M -37.592 276.711 L -55.491 276.71 L -55.491 276.468 C -55.491 272.35 -52.371 269.012 -48.524 269.012 L -48.523 269.012 L -37.591 269.012 L -37.592 276.711 Z" stroke-linecap="round" />
</g>
		<g transform="matrix(1 0 0 1 -78.12 91.23)"  >
<polygon style="stroke: none; stroke-width: 1; stroke-dasharray: none; stroke-linecap: butt; stroke-dashoffset: 0; stroke-linejoin: miter; stroke-miterlimit: 4; fill: rgb(255,184,184); fill-rule: nonzero; opacity: 1;" vector-effect="non-scaling-stroke"  points="-3.19,11.46 2.36,11.46 3.19,-11.46 -3.19,-11.46 -3.19,11.46 " />
</g>
		<g transform="matrix(1 0 0 1 -73.78 104.6)"  >
<path style="stroke: none; stroke-width: 1; stroke-dasharray: none; stroke-linecap: butt; stroke-dashoffset: 0; stroke-linejoin: miter; stroke-miterlimit: 4; fill: rgb(47,46,65); fill-rule: nonzero; opacity: 1;" vector-effect="non-scaling-stroke"  transform=" translate(0.21, -272.86)" d="M -9.157 269.012 L 1.775 269.012 L 1.776 269.012 C 5.624 269.012 8.743 272.35 8.742 276.468 L 8.742 276.71 L -9.156 276.711 L -9.157 269.012 Z" stroke-linecap="round" />
</g>
		<g transform="matrix(1 0 0 1 -96.27 57.69)"  >
<path style="stroke: none; stroke-width: 1; stroke-dasharray: none; stroke-linecap: butt; stroke-dashoffset: 0; stroke-linejoin: miter; stroke-miterlimit: 4; fill: rgb(47,46,65); fill-rule: nonzero; opacity: 1;" vector-effect="non-scaling-stroke"  transform=" translate(22.7, -225.95)" d="M -7.595 268.015 C -8.549 268.012 -9.374 267.304 -9.585 266.308 L -23.343 202.083 C -23.405 201.746 -23.685 201.506 -24.006 201.514 L -24.009 201.514 C -24.331 201.508 -24.611 201.751 -24.67 202.09 L -37.305 265.882 C -37.508 266.888 -38.337 267.607 -39.299 267.61 L -45.317 267.61 C -46.49 267.61 -47.421 266.554 -47.351 265.301 L -42.868 184.447 L -41.064 183.876 L -41.03 183.877 L -5.596 184.208 L 1.95 264.973 C 2.062 266.186 1.222 267.261 0.086 267.358 L -7.432 268.008 C -7.486 268.013 -7.541 268.015 -7.595 268.015 Z" stroke-linecap="round" />
</g>
		<g transform="matrix(0.45 0 0 0.48 -95.8 -70.29)"  >
<circle style="stroke: none; stroke-width: 1; stroke-dasharray: none; stroke-linecap: butt; stroke-dashoffset: 0; stroke-linejoin: miter; stroke-miterlimit: 4; fill: rgb(160,97,106); fill-rule: nonzero; opacity: 1;" vector-effect="non-scaling-stroke"  cx="0" cy="0" r="24.561" />
</g>
		<g transform="matrix(1 0 0 1 -96.26 -14.81)"  >
<path style="stroke: none; stroke-width: 1; stroke-dasharray: none; stroke-linecap: butt; stroke-dashoffset: 0; stroke-linejoin: miter; stroke-miterlimit: 4; fill: rgb(204,204,204); fill-rule: nonzero; opacity: 1;" vector-effect="non-scaling-stroke"  transform=" translate(22.69, -153.45)" d="M -29.04 193.312 C -30.991 193.338 -32.935 193.045 -34.803 192.444 C -38.162 191.36 -40.954 188.839 -42.518 185.478 C -42.763 184.978 -42.817 184.395 -42.67 183.853 C -41.443 179.373 -35.516 156.086 -39.298 137.574 C -40.376 132.378 -39.436 126.936 -36.692 122.497 C -34.012 118.092 -29.775 115.043 -24.953 114.047 L -24.953 114.046 C -24.325 113.915 -23.695 113.808 -23.078 113.726 C -17.737 113.023 -12.38 114.909 -8.473 118.869 C -4.449 122.908 -2.321 128.659 -2.67 134.551 L -5.576 184.464 C -5.617 185.225 -6.029 185.907 -6.662 186.258 C -10.009 188.136 -20.064 193.312 -29.04 193.312 Z" stroke-linecap="round" />
</g>
		<g transform="matrix(1 0 0 1 -114.51 -5.77)"  >
<path style="stroke: none; stroke-width: 1; stroke-dasharray: none; stroke-linecap: butt; stroke-dashoffset: 0; stroke-linejoin: miter; stroke-miterlimit: 4; fill: rgb(160,97,106); fill-rule: nonzero; opacity: 1;" vector-effect="non-scaling-stroke"  transform=" translate(40.93, -162.49)" d="M -40.073 185.116 C -37.362 183.672 -36.529 179.957 -38.334 177.354 L -34.696 139.296 L -42.557 139.296 L -45.447 176.458 C -48.316 179.067 -47.469 184.021 -43.923 185.375 C -42.661 185.857 -41.269 185.764 -40.073 185.116 Z" stroke-linecap="round" />
</g>
		<g transform="matrix(1 0 0 1 -111.42 -34.23)"  >
<path style="stroke: none; stroke-width: 1; stroke-dasharray: none; stroke-linecap: butt; stroke-dashoffset: 0; stroke-linejoin: miter; stroke-miterlimit: 4; fill: rgb(204,204,204); fill-rule: nonzero; opacity: 1;" vector-effect="non-scaling-stroke"  transform=" translate(37.85, -134.03)" d="M -34.14 121.278 C -30.965 121.961 -28.757 125.061 -28.983 128.518 L -30.066 145.111 C -30.147 146.355 -31.289 147.195 -32.403 146.83 L -45.454 142.554 C -46.458 142.225 -46.991 141.054 -46.614 140.005 L -41.423 125.562 C -40.295 122.426 -37.219 120.616 -34.14 121.278 Z" stroke-linecap="round" />
</g>
		<g transform="matrix(1 0 0 1 -95.86 -75.33)"  >
<path style="stroke: none; stroke-width: 1; stroke-dasharray: none; stroke-linecap: butt; stroke-dashoffset: 0; stroke-linejoin: miter; stroke-miterlimit: 4; fill: rgb(47,46,65); fill-rule: nonzero; opacity: 1;" vector-effect="non-scaling-stroke"  transform=" translate(22.29, -92.93)" d="M -9.665 89.204 C -12.045 82.802 -18.282 79.049 -24.63 80.199 L -21.124 83.232 C -25.48 83.389 -30.066 83.055 -33.177 86.323 C -32.187 86.294 -30.889 88.56 -29.898 88.531 C -31.75 88.57 -33.429 89.962 -34.246 91.74 C -35.004 93.567 -35.181 95.609 -34.751 97.554 C -34.385 99.497 -31.596 104.048 -30.845 105.86 C -30.974 101.125 -22.265 89.832 -18.012 91.011 C -20.173 91.869 -22.048 93.393 -23.4 95.39 C -20.507 93.827 -17.235 93.254 -14.027 93.748 C -13.295 93.928 -12.539 93.973 -11.793 93.882 C -9.796 93.459 -8.919 90.93 -10.175 89.216 L -9.665 89.204 Z" stroke-linecap="round" />
</g>
		<g transform="matrix(1 0 0 1 -96.08 108.52)"  >
<path style="stroke: none; stroke-width: 1; stroke-dasharray: none; stroke-linecap: butt; stroke-dashoffset: 0; stroke-linejoin: miter; stroke-miterlimit: 4; fill: rgb(63,61,86); fill-rule: nonzero; opacity: 1;" vector-effect="non-scaling-stroke"  transform=" translate(22.51, -276.78)" d="M 63.748 277.269 L -108.763 277.269 C -109.112 277.269 -109.329 276.865 -109.155 276.542 C -109.075 276.392 -108.925 276.3 -108.763 276.3 L 63.748 276.3 C 64.097 276.3 64.314 276.704 64.14 277.027 C 64.059 277.176 63.91 277.269 63.748 277.269 Z" stroke-linecap="round" />
</g>
		<g transform="matrix(1 0 0 1 165.13 -84.18)"  >
<rect style="stroke: none; stroke-width: 1; stroke-dasharray: none; stroke-linecap: butt; stroke-dashoffset: 0; stroke-linejoin: miter; stroke-miterlimit: 4; fill: rgb(230,230,230); fill-rule: nonzero; opacity: 1;" vector-effect="non-scaling-stroke"  x="-1.3585" y="-0.2425" rx="0" ry="0" width="2.717" height="0.485" />
</g>
		<g transform="matrix(1 0 0 1 92 -49.65)"  >
<rect style="stroke: none; stroke-width: 1; stroke-dasharray: none; stroke-linecap: butt; stroke-dashoffset: 0; stroke-linejoin: miter; stroke-miterlimit: 4; fill: rgb(230,230,230); fill-rule: nonzero; opacity: 1;" vector-effect="non-scaling-stroke"  x="-1.3585" y="-0.2425" rx="0" ry="0" width="2.717" height="0.485" />
</g>
		<g transform="matrix(1 0 0 1 39.03 -28.33)"  >
<rect style="stroke: none; stroke-width: 1; stroke-dasharray: none; stroke-linecap: butt; stroke-dashoffset: 0; stroke-linejoin: miter; stroke-miterlimit: 4; fill: rgb(230,230,230); fill-rule: nonzero; opacity: 1;" vector-effect="non-scaling-stroke"  x="-1.3585" y="-0.2425" rx="0" ry="0" width="2.717" height="0.485" />
</g>
		<g transform="matrix(1 0 0 1 91.02 -40.25)"  >
<path style="stroke: none; stroke-width: 1; stroke-dasharray: none; stroke-linecap: butt; stroke-dashoffset: 0; stroke-linejoin: miter; stroke-miterlimit: 4; fill: rgb(59,130,246); fill-rule: nonzero; opacity: 1;" vector-effect="non-scaling-stroke"  transform=" translate(-164.6, -128.01)" d="M 256.211 78.639 L 256.211 161.627 C 256.201 170.321 249.619 177.366 241.495 177.376 L 83.926 177.376 C 79.748 177.379 75.767 175.476 72.982 172.143 L 72.982 171.401 C 75.665 174.856 79.638 176.866 83.835 176.891 L 111.089 147.725 C 112.591 146.116 115.028 146.116 116.531 147.725 L 131.016 163.222 L 164.97 126.888 C 166.473 125.279 168.91 125.279 170.412 126.888 L 190.33 148.2 L 255.31 78.663 L 255.758 78.648 L 255.966 78.644 L 256.211 78.639 Z" stroke-linecap="round" />
</g>
		<g transform="matrix(1 0 0 1 89.29 -49.89)"  >
<path style="stroke: none; stroke-width: 1; stroke-dasharray: none; stroke-linecap: butt; stroke-dashoffset: 0; stroke-linejoin: miter; stroke-miterlimit: 4; fill: rgb(63,61,86); fill-rule: nonzero; opacity: 1;" vector-effect="non-scaling-stroke"  transform=" translate(-162.86, -118.37)" d="M 241.645 177.487 L 84.075 177.487 C 75.952 177.478 69.369 170.433 69.36 161.739 L 69.36 75 C 69.369 66.306 75.952 59.261 84.075 59.251 L 241.645 59.251 C 249.768 59.261 256.351 66.306 256.36 75 L 256.36 161.739 C 256.351 170.433 249.768 177.478 241.645 177.487 Z M 84.075 59.735 C 76.202 59.745 69.822 66.574 69.813 75 L 69.813 161.739 C 69.822 170.165 76.202 176.994 84.075 177.003 L 241.645 177.003 C 249.518 176.994 255.898 170.165 255.907 161.739 L 255.907 75 C 255.898 66.574 249.518 59.745 241.645 59.735 L 84.075 59.735 Z" stroke-linecap="round" />
</g>
		<g transform="matrix(1 0 0 1 96.53 -40.44)"  >
<path style="stroke: none; stroke-width: 1; stroke-dasharray: none; stroke-linecap: butt; stroke-dashoffset: 0; stroke-linejoin: miter; stroke-miterlimit: 4; fill: rgb(63,61,86); fill-rule: nonzero; opacity: 1;" vector-effect="non-scaling-stroke"  transform=" translate(-170.1, -127.82)" d="M 84.236 177.417 L 83.916 177.074 L 111.238 147.833 C 112.742 146.227 115.177 146.227 116.68 147.833 L 131.165 163.334 L 165.119 126.997 C 166.623 125.39 169.058 125.39 170.562 126.997 L 190.48 148.313 L 255.974 78.221 L 256.294 78.563 L 190.48 148.998 L 170.242 127.339 C 168.916 125.92 166.766 125.92 165.439 127.339 L 131.165 164.02 L 116.36 148.176 C 115.033 146.759 112.885 146.759 111.558 148.176 L 84.236 177.417 Z" stroke-linecap="round" />
</g>
		<g transform="matrix(1 0 0 1 -105.15 6.13)"  >
<ellipse style="stroke: none; stroke-width: 1; stroke-dasharray: none; stroke-linecap: butt; stroke-dashoffset: 0; stroke-linejoin: miter; stroke-miterlimit: 4; fill: rgb(63,61,86); fill-rule: nonzero; opacity: 1;" vector-effect="non-scaling-stroke"  cx="0" cy="0" rx="11.904" ry="18.131" />
</g>
		<g transform="matrix(1 0 0 1 -105.15 6.13)"  >
<ellipse style="stroke: none; stroke-width: 1; stroke-dasharray: none; stroke-linecap: butt; stroke-dashoffset: 0; stroke-linejoin: miter; stroke-miterlimit: 4; fill: rgb(0,0,0); fill-rule: nonzero; opacity: 0.1;" vector-effect="non-scaling-stroke"  cx="0" cy="0" rx="11.904" ry="18.131" />
</g>
		<g transform="matrix(1 0 0 1 -103.54 6.13)"  >
<ellipse style="stroke: none; stroke-width: 1; stroke-dasharray: none; stroke-linecap: butt; stroke-dashoffset: 0; stroke-linejoin: miter; stroke-miterlimit: 4; fill: rgb(63,61,86); fill-rule: nonzero; opacity: 1;" vector-effect="non-scaling-stroke"  cx="0" cy="0" rx="11.904" ry="18.131" />
</g>
		<g transform="matrix(1 0 0 1 -103.54 6.13)"  >
<ellipse style="stroke: none; stroke-width: 1; stroke-dasharray: none; stroke-linecap: butt; stroke-dashoffset: 0; stroke-linejoin: miter; stroke-miterlimit: 4; fill: rgb(0,0,0); fill-rule: nonzero; opacity: 0.1;" vector-effect="non-scaling-stroke"  cx="0" cy="0" rx="10.209" ry="15.551" />
</g>
		<g transform="matrix(1 0 0 1 -103.13 6.2)"  >
<path style="stroke: none; stroke-width: 1; stroke-dasharray: none; stroke-linecap: butt; stroke-dashoffset: 0; stroke-linejoin: miter; stroke-miterlimit: 4; fill: rgb(59,130,246); fill-rule: nonzero; opacity: 1;" vector-effect="non-scaling-stroke"  transform=" translate(29.55, -174.46)" d="M -30.061 181.881 L -30.061 180.056 C -30.878 180.048 -31.672 179.77 -32.335 179.261 L -31.978 178.05 C -31.36 178.545 -30.611 178.818 -29.838 178.826 C -28.876 178.908 -28.057 178.088 -28.069 177.055 C -28.069 176.061 -28.649 175.447 -29.749 174.905 C -31.265 174.182 -32.202 173.35 -32.202 171.778 C -32.25 170.339 -31.286 169.09 -29.957 168.868 L -29.957 167.043 L -29.035 167.043 L -29.035 168.796 C -28.348 168.806 -27.677 169.025 -27.102 169.428 L -27.474 170.621 C -28.026 170.217 -28.679 170.003 -29.347 170.007 C -30.203 169.911 -30.943 170.64 -30.923 171.561 C -30.923 172.501 -30.373 172.971 -29.08 173.622 C -27.549 174.38 -26.775 175.32 -26.775 176.929 C -26.733 178.437 -27.735 179.747 -29.125 180.001 L -29.125 181.881 L -30.061 181.881 Z" stroke-linecap="round" />
</g>
		<g transform="matrix(1 0 0 1 -86.05 -11.17)"  >
<path style="stroke: none; stroke-width: 1; stroke-dasharray: none; stroke-linecap: butt; stroke-dashoffset: 0; stroke-linejoin: miter; stroke-miterlimit: 4; fill: rgb(160,97,106); fill-rule: nonzero; opacity: 1;" vector-effect="non-scaling-stroke"  transform=" translate(12.48, -157.09)" d="M -23.6 164.004 C -23.352 164.034 -23.105 164.086 -22.864 164.158 L -5.818 148.514 L -6.814 142.774 L 1.083 140.033 L 3.77 150.011 C 4.215 151.666 3.586 153.438 2.226 154.36 L -19.362 168.98 C -19.304 172.895 -23.227 175.409 -26.425 173.505 C -29.622 171.602 -29.695 166.708 -26.555 164.696 C -25.667 164.127 -24.63 163.884 -23.6 164.004 Z" stroke-linecap="round" />
</g>
		<g transform="matrix(1 0 0 1 -78.83 -34.29)"  >
<path style="stroke: none; stroke-width: 1; stroke-dasharray: none; stroke-linecap: butt; stroke-dashoffset: 0; stroke-linejoin: miter; stroke-miterlimit: 4; fill: rgb(204,204,204); fill-rule: nonzero; opacity: 1;" vector-effect="non-scaling-stroke"  transform=" translate(5.26, -133.97)" d="M -8.996 121.876 C -5.825 121.169 -2.657 123.091 -1.595 126.366 L 3.499 142.08 C 3.881 143.258 3.14 144.51 1.981 144.643 L -11.59 146.198 C -12.635 146.318 -13.555 145.464 -13.593 144.341 L -14.12 128.877 C -14.235 125.518 -12.07 122.561 -8.996 121.876 Z" stroke-linecap="round" />
</g>
		<g transform="matrix(1 0 0 1 35.84 -39.63)"  >
<polygon style="stroke: none; stroke-width: 1; stroke-dasharray: none; stroke-linecap: butt; stroke-dashoffset: 0; stroke-linejoin: miter; stroke-miterlimit: 4; fill: rgb(140,140,140); fill-rule: nonzero; opacity: 1;" vector-effect="non-scaling-stroke"  points="3.59,-8.68 -3.61,4.13 3.61,8.68 3.59,-8.68 " />
</g>
		<g transform="matrix(1 0 0 1 43.05 -39.63)"  >
<polygon style="stroke: none; stroke-width: 1; stroke-dasharray: none; stroke-linecap: butt; stroke-dashoffset: 0; stroke-linejoin: miter; stroke-miterlimit: 4; fill: rgb(51,51,51); fill-rule: nonzero; opacity: 1;" vector-effect="non-scaling-stroke"  points="3.62,4.13 -3.62,-8.68 -3.59,8.68 3.62,4.13 " />
</g>
		<g transform="matrix(1 0 0 1 35.84 -34.98)"  >
<polygon style="stroke: none; stroke-width: 1; stroke-dasharray: none; stroke-linecap: butt; stroke-dashoffset: 0; stroke-linejoin: miter; stroke-miterlimit: 4; fill: rgb(56,56,56); fill-rule: nonzero; opacity: 1;" vector-effect="non-scaling-stroke"  points="-3.61,-0.52 3.6,-4.04 3.61,4.04 -3.61,-0.52 " />
</g>
		<g transform="matrix(1 0 0 1 43.05 -35.13)"  >
<polygon style="stroke: none; stroke-width: 1; stroke-dasharray: none; stroke-linecap: butt; stroke-dashoffset: 0; stroke-linejoin: miter; stroke-miterlimit: 4; fill: rgb(20,20,20); fill-rule: nonzero; opacity: 1;" vector-effect="non-scaling-stroke"  points="3.61,-0.37 -3.61,-3.89 -3.59,3.89 3.61,-0.37 " />
</g>
		<g transform="matrix(1 0 0 1 43.04 -28.61)"  >
<polygon style="stroke: none; stroke-width: 1; stroke-dasharray: none; stroke-linecap: butt; stroke-dashoffset: 0; stroke-linejoin: miter; stroke-miterlimit: 4; fill: rgb(51,51,51); fill-rule: nonzero; opacity: 1;" vector-effect="non-scaling-stroke"  points="3.6,-5.42 -3.6,-0.86 -3.6,5.42 3.6,-5.42 " />
</g>
		<g transform="matrix(1 0 0 1 35.83 -28.61)"  >
<polygon style="stroke: none; stroke-width: 1; stroke-dasharray: none; stroke-linecap: butt; stroke-dashoffset: 0; stroke-linejoin: miter; stroke-miterlimit: 4; fill: rgb(140,140,140); fill-rule: nonzero; opacity: 1;" vector-effect="non-scaling-stroke"  points="-3.6,-5.42 3.6,-0.86 3.6,5.42 -3.6,-5.42 " />
</g>
		<g transform="matrix(1 0 0 1 93.65 -48.4)"  >
<rect style="stroke: none; stroke-width: 1; stroke-dasharray: none; stroke-linecap: butt; stroke-dashoffset: 0; stroke-linejoin: miter; stroke-miterlimit: 4; fill: rgb(230,230,230); fill-rule: nonzero; opacity: 1;" vector-effect="non-scaling-stroke"  x="-1.3585" y="-0.2425" rx="0" ry="0" width="2.717" height="0.485" />
</g>
		<g transform="matrix(1 0 0 1 90.46 -59.7)"  >
<polygon style="stroke: none; stroke-width: 1; stroke-dasharray: none; stroke-linecap: butt; stroke-dashoffset: 0; stroke-linejoin: miter; stroke-miterlimit: 4; fill: rgb(140,140,140); fill-rule: nonzero; opacity: 1;" vector-effect="non-scaling-stroke"  points="3.59,-8.68 -3.61,4.13 3.61,8.68 3.59,-8.68 " />
</g>
		<g transform="matrix(1 0 0 1 97.67 -59.7)"  >
<polygon style="stroke: none; stroke-width: 1; stroke-dasharray: none; stroke-linecap: butt; stroke-dashoffset: 0; stroke-linejoin: miter; stroke-miterlimit: 4; fill: rgb(51,51,51); fill-rule: nonzero; opacity: 1;" vector-effect="non-scaling-stroke"  points="3.62,4.13 -3.62,-8.68 -3.59,8.68 3.62,4.13 " />
</g>
		<g transform="matrix(1 0 0 1 90.46 -55.05)"  >
<polygon style="stroke: none; stroke-width: 1; stroke-dasharray: none; stroke-linecap: butt; stroke-dashoffset: 0; stroke-linejoin: miter; stroke-miterlimit: 4; fill: rgb(56,56,56); fill-rule: nonzero; opacity: 1;" vector-effect="non-scaling-stroke"  points="-3.61,-0.52 3.6,-4.04 3.61,4.04 -3.61,-0.52 " />
</g>
		<g transform="matrix(1 0 0 1 97.67 -55.2)"  >
<polygon style="stroke: none; stroke-width: 1; stroke-dasharray: none; stroke-linecap: butt; stroke-dashoffset: 0; stroke-linejoin: miter; stroke-miterlimit: 4; fill: rgb(20,20,20); fill-rule: nonzero; opacity: 1;" vector-effect="non-scaling-stroke"  points="3.61,-0.37 -3.61,-3.89 -3.59,3.89 3.61,-0.37 " />
</g>
		<g transform="matrix(1 0 0 1 97.66 -48.68)"  >
<polygon style="stroke: none; stroke-width: 1; stroke-dasharray: none; stroke-linecap: butt; stroke-dashoffset: 0; stroke-linejoin: miter; stroke-miterlimit: 4; fill: rgb(51,51,51); fill-rule: nonzero; opacity: 1;" vector-effect="non-scaling-stroke"  points="3.6,-5.42 -3.6,-0.86 -3.6,5.42 3.6,-5.42 " />
</g>
		<g transform="matrix(1 0 0 1 90.46 -48.68)"  >
<polygon style="stroke: none; stroke-width: 1; stroke-dasharray: none; stroke-linecap: butt; stroke-dashoffset: 0; stroke-linejoin: miter; stroke-miterlimit: 4; fill: rgb(140,140,140); fill-rule: nonzero; opacity: 1;" vector-effect="non-scaling-stroke"  points="-3.6,-5.42 3.6,-0.86 3.6,5.42 -3.6,-5.42 " />
</g>
		<g transform="matrix(1 0 0 1 165.48 -83.53)"  >
<rect style="stroke: none; stroke-width: 1; stroke-dasharray: none; stroke-linecap: butt; stroke-dashoffset: 0; stroke-linejoin: miter; stroke-miterlimit: 4; fill: rgb(230,230,230); fill-rule: nonzero; opacity: 1;" vector-effect="non-scaling-stroke"  x="-1.3585" y="-0.2425" rx="0" ry="0" width="2.717" height="0.485" />
</g>
		<g transform="matrix(1 0 0 1 162.3 -94.83)"  >
<polygon style="stroke: none; stroke-width: 1; stroke-dasharray: none; stroke-linecap: butt; stroke-dashoffset: 0; stroke-linejoin: miter; stroke-miterlimit: 4; fill: rgb(140,140,140); fill-rule: nonzero; opacity: 1;" vector-effect="non-scaling-stroke"  points="3.59,-8.68 -3.61,4.13 3.61,8.68 3.59,-8.68 " />
</g>
		<g transform="matrix(1 0 0 1 169.5 -94.83)"  >
<polygon style="stroke: none; stroke-width: 1; stroke-dasharray: none; stroke-linecap: butt; stroke-dashoffset: 0; stroke-linejoin: miter; stroke-miterlimit: 4; fill: rgb(51,51,51); fill-rule: nonzero; opacity: 1;" vector-effect="non-scaling-stroke"  points="3.62,4.13 -3.62,-8.68 -3.59,8.68 3.62,4.13 " />
</g>
		<g transform="matrix(1 0 0 1 162.3 -90.18)"  >
<polygon style="stroke: none; stroke-width: 1; stroke-dasharray: none; stroke-linecap: butt; stroke-dashoffset: 0; stroke-linejoin: miter; stroke-miterlimit: 4; fill: rgb(56,56,56); fill-rule: nonzero; opacity: 1;" vector-effect="non-scaling-stroke"  points="-3.61,-0.52 3.6,-4.04 3.61,4.04 -3.61,-0.52 " />
</g>
		<g transform="matrix(1 0 0 1 169.51 -90.33)"  >
<polygon style="stroke: none; stroke-width: 1; stroke-dasharray: none; stroke-linecap: butt; stroke-dashoffset: 0; stroke-linejoin: miter; stroke-miterlimit: 4; fill: rgb(20,20,20); fill-rule: nonzero; opacity: 1;" vector-effect="non-scaling-stroke"  points="3.61,-0.37 -3.61,-3.89 -3.59,3.89 3.61,-0.37 " />
</g>
		<g transform="matrix(1 0 0 1 169.5 -83.81)"  >
<polygon style="stroke: none; stroke-width: 1; stroke-dasharray: none; stroke-linecap: butt; stroke-dashoffset: 0; stroke-linejoin: miter; stroke-miterlimit: 4; fill: rgb(51,51,51); fill-rule: nonzero; opacity: 1;" vector-effect="non-scaling-stroke"  points="3.6,-5.42 -3.6,-0.86 -3.6,5.42 3.6,-5.42 " />
</g>
		<g transform="matrix(1 0 0 1 162.29 -83.81)"  >
<polygon style="stroke: none; stroke-width: 1; stroke-dasharray: none; stroke-linecap: butt; stroke-dashoffset: 0; stroke-linejoin: miter; stroke-miterlimit: 4; fill: rgb(140,140,140); fill-rule: nonzero; opacity: 1;" vector-effect="non-scaling-stroke"  points="-3.6,-5.42 3.6,-0.86 3.6,5.42 -3.6,-5.42 " />
</g>
</g>
</g>
</svg>